<svg xmlns="http://www.w3.org/2000/svg" viewBox="0 0 100 100"><defs><style>.a{fill:#373535;}.b{fill:#1675bc;}</style></defs><title>Untitled-1</title><path class="a" d="M54.31,100H50A50.06,50.06,0,0,1,0,50,51.26,51.26,0,0,1,17.95,11.64l4.17-3.49,11.06,22-2.05,2.19a25.83,25.83,0,0,0,14.56,43.1V54.91h8.62V84.45H50A34.45,34.45,0,0,1,22.85,28.8l-3.36-6.69A42.57,42.57,0,0,0,8.62,50,41.43,41.43,0,0,0,50,91.38h4.31V100Z"/><path class="b" d="M77.88,91.85l-11.06-22,2.05-2.2a25.83,25.83,0,0,0-14.56-43.1V45.09H45.69V15.56H50A34.45,34.45,0,0,1,77.15,71.2l3.36,6.69A42.57,42.57,0,0,0,91.38,50,41.43,41.43,0,0,0,50,8.62H45.69V0H50a50.06,50.06,0,0,1,50,50A51.26,51.26,0,0,1,82.05,88.36Z"/></svg>