<svg xmlns="http://www.w3.org/2000/svg" viewBox="0 0 452 500"><defs><style>.a{fill:#ba2025;}.b{fill:#fff;}</style></defs><title>logo</title><path d="M6.88,5.81s-16.13,151,71,315.48S214.75,494.19,226,494.19s61-8.39,148.14-172.9,71-315.48,71-315.48H6.88Z"/><path class="a" d="M226,500c-18.06,0-69.16-17.15-153.27-176C-14.21,159.82.95,6.72,1.11,5.19L1.66,0H450.34l0.56,5.19C451.05,6.72,466.2,159.82,379.27,324,295.16,482.85,244.06,500,226,500ZM12.26,11.61C10.52,39.41,6.72,174.52,83,318.57,168.58,480.2,217.14,488.39,226,488.39s57.42-8.19,143-169.81c76.36-144.2,72.5-279.18,70.74-307H12.26Z"/><path class="a" d="M163.69,5.81H6.88S1.33,57.89,14.38,134.2h149.3V5.81Z"/><path class="b" d="M24.63,97.58a1.94,1.94,0,0,1-1.22-3.44L82.26,46.67l54.94,47.51a1.94,1.94,0,1,1-2.53,2.93L82.18,51.71,25.84,97.15A1.93,1.93,0,0,1,24.63,97.58Z"/><path class="b" d="M144.06,42.88H133.37a4.47,4.47,0,0,0-2.45.56A7.26,7.26,0,0,0,129,45.79a39.16,39.16,0,0,1-6.49,9,19.55,19.55,0,0,1-3.41,2.58,15.65,15.65,0,0,1-3.71,1.72,11.67,11.67,0,0,1-3.41.6,5.06,5.06,0,0,1-3.21-1.06A3.14,3.14,0,0,1,107.45,56a5.54,5.54,0,0,1,2.09-3.84,3.81,3.81,0,0,1,2.05-1.29,0.31,0.31,0,0,1,.33.36,0.8,0.8,0,0,1-.36.56,1.6,1.6,0,0,0-.63,1.26,2.62,2.62,0,0,0,1.32,2.22,5.89,5.89,0,0,0,3.31.89q4.2,0,7.71-4.37a22.82,22.82,0,0,0,2.81-4.67q1.26-2.78,3.11-8.31T132,31.16a21.45,21.45,0,0,1,2.38-4,23.59,23.59,0,0,1,2.71-2.95,20.05,20.05,0,0,1,3.28-2.32q1.69-1,5-2.42-2.81-.2-4.7-0.43t-5.5-.73q-3.41-.46-5.86-0.69a41.66,41.66,0,0,0-4.17-.23,25.08,25.08,0,0,0-14.63,4.24A17.72,17.72,0,0,0,105,27.92,16.66,16.66,0,0,0,103,35.73a12.41,12.41,0,0,0,1.29,5.69,9.76,9.76,0,0,0,3.54,4,9.39,9.39,0,0,0,5.1,1.46,9.13,9.13,0,0,0,4.37-1,8.08,8.08,0,0,0,3-2.75,7,7,0,0,0,1.13-3.91,5,5,0,0,0-1.32-3.54,4.3,4.3,0,0,0-3.28-1.42,2.35,2.35,0,0,0-1.23.3,2,2,0,0,1-.56.27,0.31,0.31,0,0,1-.33-0.36,2.28,2.28,0,0,1,1-1.16A6.91,6.91,0,0,1,120,31.62,4.35,4.35,0,0,1,123.27,33a5,5,0,0,1,1.29,3.48,11.53,11.53,0,0,1-2.05,6.35,16.43,16.43,0,0,1-5.36,5.1,13.25,13.25,0,0,1-6.82,2,10.62,10.62,0,0,1-5.63-1.49,9.75,9.75,0,0,1-3.84-4.17,13,13,0,0,1-1.39-6.09,18.06,18.06,0,0,1,2.65-9,32,32,0,0,1,7.65-8.74,33.35,33.35,0,0,1,5.59-3.84,26.27,26.27,0,0,1,5.89-2.35,24.28,24.28,0,0,1,5.89-.76,83.86,83.86,0,0,1,10.69,1.06A124.59,124.59,0,0,0,151.94,16a11.38,11.38,0,0,0,4.93-.73l0.33-.17a0.59,0.59,0,0,1,.3-0.1q0.3,0,.3.43a3.63,3.63,0,0,1-1,1.56,28.3,28.3,0,0,0-4.17,7.81q-1.09,2.91-1.85,5.59t-1.39,5.92a60.86,60.86,0,0,0-1.19,11.45q0,8.14,3.61,8.14a5.55,5.55,0,0,0,1.89-.3l0.53-.17a0.34,0.34,0,0,1,.2,0,0.4,0.4,0,0,1,.43.46q0,0.36-1.65,1.16a19.06,19.06,0,0,1-3,1.22,8.38,8.38,0,0,1-2.45.5,3.35,3.35,0,0,1-3.18-2.22,16.8,16.8,0,0,1-1-6.82A47.92,47.92,0,0,1,144.06,42.88ZM131.71,40.4l-0.36.83q0.2-.13,1.22-0.93a7,7,0,0,1,1.89-1.16,7.14,7.14,0,0,1,2.15-.23h5.86a4.23,4.23,0,0,0,2-.3,2.18,2.18,0,0,0,.69-1.42l0.4-1.79a37.18,37.18,0,0,1,2.88-8.31q0.89-1.82,1.66-3.08,0.53-.89,2.78-4.4l0.33-.53H153a16,16,0,0,0-5.13.89A18.2,18.2,0,0,0,143,22.52a19.73,19.73,0,0,0-2.86,2.6,23.19,23.19,0,0,0-2.5,3.33,77.82,77.82,0,0,0-4.14,8Z"/><path class="b" d="M91.77,111.38l0.1-.79-0.73.89-0.45.56-0.46.6-0.55.69q-2.22,2.81-3.67,4.34a21,21,0,0,1-3.54,2.91,16.15,16.15,0,0,1-9.3,3.41,5.91,5.91,0,0,1-4.7-2.12,7.64,7.64,0,0,1-1.89-5.33,19,19,0,0,1,.63-4.57q0.7-3.14,1.62-6.35L70.72,99q1.26-4.5,1.89-7.38A17.58,17.58,0,0,0,73,88.44a6.22,6.22,0,0,0-1.36-4.24,4.73,4.73,0,0,0-3.77-1.52,8.61,8.61,0,0,0-3.91,1,13.75,13.75,0,0,0-3.81,2.85,12.11,12.11,0,0,0-3.54,8.57,6.34,6.34,0,0,0,1.66,4.53,5.59,5.59,0,0,0,4.27,1.72,4.82,4.82,0,0,0,2.18-.5,2.17,2.17,0,0,1,.7-0.26,0.32,0.32,0,0,1,.36.36,2.8,2.8,0,0,1-1.23,1.59,7.36,7.36,0,0,1-4.87,2.32,5.48,5.48,0,0,1-4.3-2.08,7.52,7.52,0,0,1-1.79-5.06A15.66,15.66,0,0,1,55.42,91a21.85,21.85,0,0,1,4.73-6.42,19.09,19.09,0,0,1,3.51-2.61,18.67,18.67,0,0,1,3.84-1.75,11.62,11.62,0,0,1,3.61-.63,7.24,7.24,0,0,1,3.44.86A6.53,6.53,0,0,1,77,82.85a6.61,6.61,0,0,1,.89,3.41,14.38,14.38,0,0,1-.46,3.48q-0.5,2.22-1.62,6.16Q71.54,111,71.54,115.15q0,6,4.93,6a10.31,10.31,0,0,0,6.29-2.42,21.59,21.59,0,0,0,5.59-6.55,41.83,41.83,0,0,0,3.81-9.8q1.32-5.06,2.55-10.66,0.76-3.41,1.19-5a1.06,1.06,0,0,1,.26-0.15,1.14,1.14,0,0,0,.23-0.12l0.36-.2,2-.83,1.79-.73,0.66-.3a0.57,0.57,0,0,1,.26-0.1,0.24,0.24,0,0,1,.23.3,1.42,1.42,0,0,1-.1.33,24.5,24.5,0,0,0-1.79,4.9q-0.7,2.58-1.59,7.12-0.89,4.2-1.42,7.58-0.36,2.35-.76,6.59-0.33,3.64-.33,5.92a6.66,6.66,0,0,0,.6,3.31,2.19,2.19,0,0,0,2.09.93,9.46,9.46,0,0,0,2.32-.36,1.35,1.35,0,0,1,.46-0.1,0.33,0.33,0,0,1,.4.33q0,0.53-2.05,1.22a19.63,19.63,0,0,1-6.26,1.39q-2.48,0-2.48-3.57a51,51,0,0,1,.56-5.59q0-.23.07-0.38t0.17-1Q91.74,112,91.77,111.38Z"/><path class="b" d="M26,59.28l3.15-3.54,1,0,2.78-.1a9.19,9.19,0,0,0,3.41-.66,3.93,3.93,0,0,0,1.82-2.08,19.55,19.55,0,0,0,1.19-4.57q0.43-2.95,1.09-9.47a60.59,60.59,0,0,1,1.13-7.48,19.57,19.57,0,0,1,1.89-5.1,27.75,27.75,0,0,1,3.41-4.73l0.7-.83A29.73,29.73,0,0,0,43,19.59a31.46,31.46,0,0,0-4.87-.33,29.3,29.3,0,0,0-12,2.42,21,21,0,0,0-8.64,6.65,15.07,15.07,0,0,0-3.15,9.17,11,11,0,0,0,4,8.74,13,13,0,0,0,3.38,2.05,9.45,9.45,0,0,0,3.51.79,8.36,8.36,0,0,0,4-1.06,8.13,8.13,0,0,0,3.08-2.85,6.62,6.62,0,0,0,1.16-3.71,5.48,5.48,0,0,0-1.19-3.64,3.8,3.8,0,0,0-3-1.42,2,2,0,0,0-.63.1l-0.36.13a1.08,1.08,0,0,1-.33.07,0.35,0.35,0,0,1-.4-0.4,1.34,1.34,0,0,1,.63-0.79A6.43,6.43,0,0,1,32.11,34a4.27,4.27,0,0,1,3.31,1.42,5.35,5.35,0,0,1,1.29,3.74,9.87,9.87,0,0,1-2.12,5.82,17.25,17.25,0,0,1-2.47,2.71,18.39,18.39,0,0,1-3,2.18,12.75,12.75,0,0,1-6.42,2,10.28,10.28,0,0,1-7.94-3.41,12.23,12.23,0,0,1-3.14-8.57,16,16,0,0,1,.73-4.7,23.11,23.11,0,0,1,2.18-4.87,25.54,25.54,0,0,1,3.38-4.53,32.21,32.21,0,0,1,4.24-3.77q7.61-5.56,18.8-5.56,10.46,0,16.95,5.2a20.23,20.23,0,0,1,5.53,6.82,19.23,19.23,0,0,1,1.92,8.54q0,9.5-8.47,17.18a27.81,27.81,0,0,1-5.06,3.71,22.07,22.07,0,0,1-5.4,2.25,22.29,22.29,0,0,1-5.86.73q-1.56,0-5-.36a40.18,40.18,0,0,0-5-.43,14.11,14.11,0,0,0-4.63.66l-0.33.07a0.32,0.32,0,0,1-.36-0.36,1.31,1.31,0,0,1,.43-0.7Zm11.72-3.34-0.43.46H38.2q3.77,0.1,6,.1a31.53,31.53,0,0,0,5.23-.33A12.17,12.17,0,0,0,53,55a15,15,0,0,0,4.6-3.87,17,17,0,0,0,2.88-5.59,23.2,23.2,0,0,0,1-7q0-9.83-7.71-15.06-2.81-1.89-4-1.89a1.14,1.14,0,0,0-.83.36A4.43,4.43,0,0,0,48.23,23q-2,4-2.88,11.82l-0.63,6a31.69,31.69,0,0,1-1.06,5.86,16.79,16.79,0,0,1-2.12,4.53A38.57,38.57,0,0,1,37.71,55.93Z"/><path class="b" d="M307.76,219.72A81.76,81.76,0,1,0,226,301.47,81.75,81.75,0,0,0,307.76,219.72Z"/><path class="a" d="M226,305.25a85.52,85.52,0,1,1,85.54-85.52A85.63,85.63,0,0,1,226,305.25Zm0-163.49a78,78,0,1,0,78,78A78.06,78.06,0,0,0,226,141.76Z"/><path class="a" d="M196.17,205.28c-7.9,4.73-84-1-126-25.33V259.5c42-24.3,118.05-30.05,126-25.33V205.28Zm15.39-15.39h28.89c-4.73-7.9,1-84,25.33-125.93H186.22C210.53,105.94,216.28,182,211.56,189.9Zm28.89,59.66H211.56c4.73,7.9-1,84-25.33,125.93h79.56C241.48,333.51,235.72,257.45,240.45,249.55Zm15.39-44.27v28.89c7.9-4.73,84,1,126,25.33V180C339.81,204.25,263.74,210,255.83,205.28Z"/></svg>