<?xml version="1.0" encoding="utf-8"?>
<!DOCTYPE svg PUBLIC "-//W3C//DTD SVG 1.1//EN" "http://www.w3.org/Graphics/SVG/1.1/DTD/svg11.dtd">
<svg version="1.1" id="Layer_1" xmlns="http://www.w3.org/2000/svg" xmlns:xlink="http://www.w3.org/1999/xlink" x="0px" y="0px" viewBox="0 0 28.167 200" enable-background="new 0 0 28.167 200" xml:space="preserve" preserveAspectRatio="none">
<path opacity="0.3" d="M19.781,119.265c0-2.598-0.499-5.006-1.495-7.225
	c-0.999-2.216-2.378-4.129-4.14-5.733c-1.766-1.606-3.852-2.867-6.27-3.784c-2.414-0.918-5.039-1.377-7.877-1.377v-2.293
	c2.837,0,5.463-0.439,7.877-1.319c2.417-0.877,4.504-2.122,6.27-3.726c1.762-1.606,3.141-3.517,4.14-5.734
	c0.995-2.216,1.495-4.663,1.495-7.339c0-4.434-0.403-8.753-1.207-12.959c-0.807-4.203-1.71-8.371-2.705-12.499
	s-1.898-8.315-2.702-12.557c-0.804-4.244-1.207-8.62-1.207-13.131c0-4.129,0.671-7.988,2.01-11.583
	c1.343-3.593,3.221-6.727,5.638-9.403c2.414-2.676,5.327-4.778,8.74-6.308C31.758,0.765,35.494,0,39.558,0H46v0.918
	c0,0.765-0.46,1.146-1.382,1.146h-5.059c-3.604,0-6.918,0.651-9.947,1.951s-5.674,3.152-7.933,5.561
	c-2.265,2.407-4.028,5.294-5.291,8.658c-1.266,3.365-1.898,7.149-1.898,11.354c0,4.358,0.403,8.658,1.207,12.902
	c0.807,4.242,1.706,8.486,2.702,12.729c0.995,4.242,1.898,8.486,2.705,12.729c0.804,4.244,1.207,8.506,1.207,12.788
	c0,2.905-0.519,5.486-1.554,7.739c-1.035,2.257-2.358,4.186-3.965,5.792c-1.61,1.606-3.413,2.887-5.407,3.842
	c-1.994,0.956-3.948,1.588-5.866,1.893c1.918,0.383,3.872,1.05,5.866,2.007s3.796,2.236,5.407,3.842
	c1.607,1.604,2.93,3.517,3.965,5.733c1.035,2.219,1.554,4.778,1.554,7.683c0,4.284-0.403,8.544-1.207,12.788
	c-0.807,4.244-1.71,8.485-2.705,12.729c-0.995,4.244-1.895,8.485-2.702,12.729c-0.804,4.244-1.207,8.544-1.207,12.903
	c0,4.201,0.632,7.987,1.898,11.35c1.263,3.364,3.026,6.252,5.291,8.659c2.259,2.407,4.904,4.26,7.933,5.563
	c3.029,1.299,6.342,1.949,9.947,1.949h5.059c0.923,0,1.382,0.383,1.382,1.148V200h-6.442c-4.064,0-7.801-0.765-11.21-2.295
	c-3.413-1.53-6.326-3.631-8.74-6.305c-2.417-2.678-4.295-5.814-5.638-9.405c-1.339-3.594-2.01-7.453-2.01-11.581
	c0-4.511,0.403-8.89,1.207-13.131c0.804-4.244,1.706-8.429,2.702-12.557c0.995-4.129,1.898-8.277,2.705-12.445
	C19.377,128.116,19.781,123.776,19.781,119.265z"/>
</svg>
