<?xml version="1.0" encoding="utf-8"?>
<!-- Generator: Adobe Illustrator 17.0.0, SVG Export Plug-In . SVG Version: 6.00 Build 0)  -->
<!DOCTYPE svg PUBLIC "-//W3C//DTD SVG 1.1//EN" "http://www.w3.org/Graphics/SVG/1.1/DTD/svg11.dtd">
<svg version="1.1" id="Layer_1" xmlns="http://www.w3.org/2000/svg" xmlns:xlink="http://www.w3.org/1999/xlink" x="0px" y="0px"
	 width="40px" height="40px" viewBox="0 0 40 40" enable-background="new 0 0 40 40" xml:space="preserve">
<path fill="#666666" d="M32.05,12.039C32.05,5.392,26.659,0,20,0C13.341,0,7.95,5.392,7.95,12.039c0,1.907,0.453,3.703,1.238,5.305
	l-0.01,0.002L19.999,40L20,39.999V40l10.821-22.653l-0.009-0.002C31.597,15.743,32.05,13.947,32.05,12.039z M20,5.563
	c3.584,0,6.488,2.906,6.488,6.489c0,1.522-0.529,2.92-1.408,4.028c-1.188,1.496-3.021,2.46-5.081,2.46s-3.891-0.964-5.081-2.46
	c-0.879-1.108-1.409-2.506-1.409-4.028C13.511,8.469,16.416,5.563,20,5.563z"/>
</svg>
