<?xml version="1.0" encoding="utf-8"?>
<!-- Generator: Adobe Illustrator 17.0.2, SVG Export Plug-In . SVG Version: 6.00 Build 0)  -->
<!DOCTYPE svg PUBLIC "-//W3C//DTD SVG 1.1//EN" "http://www.w3.org/Graphics/SVG/1.1/DTD/svg11.dtd">
<svg version="1.1" id="Layer_1" xmlns="http://www.w3.org/2000/svg" xmlns:xlink="http://www.w3.org/1999/xlink" x="0px" y="0px"
	 width="40px" height="40px" viewBox="0 0 40 40" enable-background="new 0 0 40 40" xml:space="preserve">
<path id="Search_Icon" opacity="0.3" d="M35.943,32.601L25.59,22.247c1.223-1.774,1.942-3.921,1.942-6.238
	C27.532,9.929,22.603,5,16.523,5S5.515,9.929,5.515,16.009s4.929,11.008,11.008,11.008c2.317,0,4.464-0.719,6.238-1.942
	l10.354,10.354L35.943,32.601z M9.515,16.009C9.515,12.144,12.659,9,16.523,9c3.865,0,7.009,3.144,7.009,7.009
	c0,3.865-3.144,7.008-7.009,7.008C12.659,23.017,9.515,19.873,9.515,16.009z"/>
</svg>
