<?xml version="1.0" encoding="utf-8"?>
<!-- Generator: Adobe Illustrator 17.0.0, SVG Export Plug-In . SVG Version: 6.00 Build 0)  -->
<!DOCTYPE svg PUBLIC "-//W3C//DTD SVG 1.1//EN" "http://www.w3.org/Graphics/SVG/1.1/DTD/svg11.dtd">
<svg version="1.1" id="Layer_1" xmlns="http://www.w3.org/2000/svg" xmlns:xlink="http://www.w3.org/1999/xlink" x="0px" y="0px"
	 width="512px" height="512px" viewBox="0 0 512 512" enable-background="new 0 0 512 512" xml:space="preserve">
<g id="Target">
	<g id="Circle">
		<path d="M255.998,396.564c-77.507,0-140.563-63.057-140.563-140.564c0-77.506,63.056-140.563,140.563-140.563
			c77.509,0,140.57,63.056,140.57,140.563C396.568,333.508,333.509,396.564,255.998,396.564z M255.998,127.86
			c-70.657,0-128.14,57.483-128.14,128.14c0,70.658,57.484,128.141,128.14,128.141c70.659,0,128.147-57.482,128.147-128.141
			C384.145,185.343,326.659,127.86,255.998,127.86z"/>
	</g>
	<path id="Crosshairs" d="M206.977,232.264C193.99,240.035,68.99,230.573,0,190.637v130.73
		c68.991-39.937,193.99-49.397,206.977-41.627V232.264z M232.263,206.976h47.477C271.968,193.989,281.431,68.99,321.367,0H190.635
		C230.571,68.992,240.034,193.991,232.263,206.976z M279.741,305.023h-47.477c7.771,12.988-1.691,137.986-41.628,206.978h130.731
		C281.431,443.01,271.969,318.012,279.741,305.023z M305.024,232.262v47.475c12.989-7.771,137.987,1.692,206.977,41.629V190.634
		C443.012,230.57,318.014,240.032,305.024,232.262z"/>
</g>
</svg>
