<?xml version="1.0" encoding="utf-8"?>
<!-- Generator: Adobe Illustrator 17.0.0, SVG Export Plug-In . SVG Version: 6.00 Build 0)  -->
<!DOCTYPE svg PUBLIC "-//W3C//DTD SVG 1.1//EN" "http://www.w3.org/Graphics/SVG/1.1/DTD/svg11.dtd">
<svg version="1.1" id="Layer_1" xmlns="http://www.w3.org/2000/svg" xmlns:xlink="http://www.w3.org/1999/xlink" x="0px" y="0px"
	 width="512px" height="512px" viewBox="0 0 512 512" enable-background="new 0 0 512 512" xml:space="preserve">
<g id="Target">
	<g id="Circle">
		<path d="M274.379,421.946c-77.507,0-140.563-63.057-140.563-140.564c0-77.506,63.056-140.563,140.563-140.563
			c77.509,0,140.57,63.056,140.57,140.563C414.949,358.89,351.89,421.946,274.379,421.946z M274.379,153.242
			c-70.657,0-128.14,57.483-128.14,128.14c0,70.658,57.484,128.141,128.14,128.141c70.659,0,128.147-57.482,128.147-128.141
			C402.526,210.725,345.04,153.242,274.379,153.242z"/>
	</g>
	<path id="Crosshairs" d="M225.358,257.646c-12.987,7.771-137.987-1.691-206.977-41.627v130.73
		c68.991-39.937,193.99-49.397,206.977-41.627V257.646z M250.644,232.358h47.477c-7.772-12.987,1.691-137.986,41.627-206.976
		H209.016C248.952,94.374,258.415,219.373,250.644,232.358z M298.122,330.405h-47.477c7.771,12.988-1.691,137.986-41.628,206.978
		h130.731C299.812,468.392,290.35,343.394,298.122,330.405z M323.405,257.644v47.475c12.989-7.771,137.987,1.692,206.977,41.629
		V216.016C461.393,255.952,336.395,265.414,323.405,257.644z"/>
</g>
</svg>
